<?xml version="1.0" encoding="UTF-8" standalone="no"?>
<svg
   xmlns:dc="http://purl.org/dc/elements/1.1/"
   xmlns:cc="http://creativecommons.org/ns#"
   xmlns:rdf="http://www.w3.org/1999/02/22-rdf-syntax-ns#"
   xmlns:svg="http://www.w3.org/2000/svg"
   xmlns="http://www.w3.org/2000/svg"
   viewBox="0 0 366 363"
   height="363"
   width="366"
   id="svg815"
   version="1.1">
  <metadata
     id="metadata821">
    <rdf:RDF>
      <cc:Work
         rdf:about="">
        <dc:format>image/svg+xml</dc:format>
        <dc:type
           rdf:resource="http://purl.org/dc/dcmitype/StillImage" />
        <dc:title></dc:title>
      </cc:Work>
    </rdf:RDF>
  </metadata>
  <defs
     id="defs819" />
  <path
     id="path857"
     d="M 156.92846,354.52945 C 130.28103,350.19035 107.03414,341.02552 84.909601,326.13681 46.741566,300.45164 20.961249,261.77264 10.834722,215 8.8326767,205.75291 8.5614155,201.69587 8.5614155,181 c 0,-26.58613 1.1601516,-34.32696 8.4078485,-56.09928 C 34.005835,73.722276 75.722276,32.005835 126.90072,14.969264 148.44763,7.796606 156.46912,6.5801408 182.5,6.5375934 c 18.20278,-0.029752 24.87717,0.335895 32,1.7530764 13.40004,2.6661162 25.39621,6.2677472 36.27965,10.8923032 54.02887,22.957763 91.51614,68.87796 104.37822,127.858547 2.01289,9.23034 2.28071,13.21809 2.28071,33.95848 0,20.69587 -0.27126,24.75291 -2.2733,34 -15.32475,70.78232 -67.32959,122.92814 -137.66528,138.03851 -13.02098,2.79733 -47.35819,3.64252 -60.57154,1.49094 z M 211.03551,321.1122 C 268.20682,309.60823 311.02886,266.58288 323.6132,208 c 2.58777,-12.04663 2.62908,-42.01872 0.0744,-54 C 311.25111,95.673 268.95246,53.021721 211,40.372954 c -6.65686,-1.452935 -12.72837,-1.85522 -28,-1.85522 -15.27163,0 -21.34314,0.402285 -28,1.85522 -51.20062,11.175104 -91.451873,46.73742 -107.498404,94.975726 -5.90103,17.7394 -7.007779,25.01106 -6.948149,45.65132 0.04429,15.32888 0.441931,20.29978 2.319825,28.99972 C 55.238234,267.28437 100.28448,311.258 157,321.40895 c 13.10444,2.34543 14.51309,2.44017 30,2.01761 8.74183,-0.23852 18.2867,-1.15759 24.03551,-2.31436 z m -96.59,-93.32737 C 87.525479,202.36648 65.5,181.31454 65.5,181.00273 65.5,180.07433 163.11125,88 164.09548,88 164.6078,88 165,97.66854 165,110.29798 v 22.29797 l -25.48633,23.95203 C 125.49618,169.72159 114.02578,180.725 114.02389,181 c -0.002,0.275 11.46695,11.23869 25.48633,24.36376 L 165,229.22751 v 22.38625 C 165,263.92619 164.63798,274 164.19551,274 c -0.44247,0 -22.82997,-20.79683 -49.75,-46.21517 z M 202,251.32778 v -22.91711 l 25,-23.39072 c 13.75,-12.86489 25,-23.66526 25,-24.00082 0,-0.33556 -11.2386,-11.16463 -24.97467,-24.06462 L 202.05065,133.5 202.02533,110.75 C 202.0114,98.2375 202.23228,88 202.51617,88 203.3756,88 300.5,180.17952 300.5,180.99519 c 0,0.65262 -92.1505,88.11393 -96.80321,91.87725 C 202.1105,274.15551 202,272.7524 202,251.32778 Z"
     style="fill:#000000" />
</svg>
